<svg width="590" height="120" viewBox="0 0 590 120" fill="none" xmlns="http://www.w3.org/2000/svg">
<g clip-path="url(#clip0_267_523)">
<path d="M30.1173 114.578C30.9726 115.944 33.0628 116.896 36.3808 117.427V117.51H0V117.427C2.35227 117.054 4.21476 116.516 5.58059 115.82C6.94642 115.123 8.01564 114.068 8.79513 112.647C9.56772 111.226 10.2299 109.204 10.7611 106.583L30.7657 12.4511C31.352 9.77465 31.5521 7.7259 31.3658 6.30488C31.1796 4.88387 30.5519 3.84225 29.4757 3.17313C28.4065 2.50401 26.7717 1.97975 24.5781 1.60725V1.52448H60.9657V1.60725C58.6066 1.97975 56.751 2.51781 55.3852 3.21452C54.0193 3.91123 52.9501 4.96665 52.1706 6.38766C51.3911 7.80868 50.7082 9.82983 50.1219 12.4511L30.1242 106.583C29.2688 110.55 29.2688 113.212 30.1242 114.571L30.1173 114.578ZM30.4415 57.834H101.927V58.3168H30.3587L30.4415 57.834ZM100.444 112.729C100.575 114.15 101.196 115.192 102.292 115.861C103.389 116.53 105.01 117.054 107.149 117.427V117.51H70.8439V117.427C73.203 117.054 75.0448 116.516 76.3831 115.82C77.7213 115.123 78.7905 114.068 79.5976 112.647C80.3978 111.226 81.0669 109.204 81.605 106.583L101.685 12.4511C102.272 9.77465 102.458 7.7259 102.244 6.30488C102.03 4.88387 101.389 3.84225 100.32 3.17313C99.2504 2.50401 97.6156 1.97975 95.4219 1.60725V1.52448H131.81V1.60725C129.45 1.97975 127.595 2.51781 126.229 3.21452C124.863 3.91123 123.808 4.96665 123.056 6.38766C122.304 7.80868 121.635 9.82983 121.049 12.4511L101.051 106.583C100.513 109.26 100.313 111.308 100.451 112.729H100.444Z" fill="#FF9900"/>
<path d="M212.366 28.9929H212.283C211.745 22.1361 210.69 16.8659 209.11 13.1685C207.53 9.47113 204.771 6.83604 200.839 5.25637C196.9 3.67669 191.161 2.69716 183.608 2.32466L169.956 1.60035L157.988 57.9857L174.778 57.3442C179.545 57.1855 183.332 56.5371 186.146 55.4196C188.961 54.3021 191.209 52.6466 192.893 50.4806C194.576 48.3145 196.093 45.4863 197.432 42.0096H197.514L190.285 76.2244H190.202C190.202 72.3132 189.85 69.1055 189.161 66.5877C188.464 64.0699 187.002 62.1867 184.78 60.9243C182.559 59.6689 179.172 58.9584 174.619 58.7997L157.995 58.1582L145.468 117.434L161.368 116.792C167.473 116.468 172.743 115.723 177.192 114.544C181.635 113.364 185.505 111.639 188.802 109.363C192.092 107.087 194.996 104.141 197.514 100.527C200.032 96.9119 202.412 92.5592 204.661 87.4753H204.744L196.79 117.517H117.517V117.434C119.876 117.061 121.718 116.523 123.056 115.827C124.394 115.13 125.449 114.074 126.229 112.653C127.002 111.232 127.664 109.211 128.195 106.59L148.269 12.4511C148.855 9.77465 149.055 7.7259 148.869 6.30488C148.682 4.88387 148.055 3.84225 146.979 3.17313C145.909 2.50401 144.274 1.97975 142.081 1.60725V1.52448H216.457L212.359 28.9929H212.366Z" fill="#FF9900"/>
<path d="M205.696 117.51L205.778 117.427C208.137 117.054 210.007 116.516 211.4 115.82C212.794 115.123 213.863 114.068 214.615 112.647C215.367 111.226 216.008 109.204 216.539 106.583L236.296 13.5755C236.937 10.6852 237.192 8.43641 237.061 6.82914C236.93 5.22188 236.323 4.0423 235.254 3.2973C234.185 2.5454 232.55 1.98665 230.356 1.60725V1.52448H266.744V1.60725C264.385 1.97975 262.529 2.51781 261.163 3.21452C259.798 3.91123 258.728 4.96665 257.949 6.38766C257.169 7.80868 256.487 9.82983 255.9 12.4511L233.654 117.427L248.43 116.703C253.838 116.434 258.618 115.62 262.764 114.254C266.917 112.888 270.566 110.95 273.725 108.432C276.884 105.914 279.678 102.851 282.12 99.2366C284.555 95.622 286.762 91.4831 288.749 86.8268H288.908L280.554 117.51H205.696Z" fill="#FF9900"/>
<path d="M292.688 117.51L292.771 117.427C295.13 117.054 296.999 116.516 298.393 115.82C299.786 115.123 300.855 114.068 301.607 112.647C302.359 111.226 303.001 109.204 303.532 106.583L323.288 13.5755C323.93 10.6852 324.185 8.43641 324.054 6.82914C323.923 5.22188 323.316 4.0423 322.247 3.2973C321.177 2.5454 319.542 1.98665 317.349 1.60725V1.52448H353.737V1.60725C351.377 1.97975 349.522 2.51781 348.156 3.21452C346.79 3.91123 345.721 4.96665 344.941 6.38766C344.162 7.80868 343.479 9.82983 342.893 12.4511L320.646 117.427L335.422 116.703C340.83 116.434 345.611 115.62 349.756 114.254C353.909 112.888 357.558 110.95 360.717 108.432C363.877 105.914 366.671 102.851 369.112 99.2366C371.548 95.622 373.755 91.4831 375.742 86.8268H375.9L367.547 117.51H292.688Z" fill="#FF9900"/>
<path d="M423.042 115.42C417.048 113.226 411.771 109.97 407.218 105.659C402.665 101.347 399.133 96.0496 396.615 89.7585C394.098 83.4674 392.842 76.2244 392.842 68.0294C392.842 58.2824 394.422 49.3148 397.581 41.1198C400.74 32.9248 405.135 25.7783 410.757 19.6735C416.379 13.5686 422.939 8.82961 430.437 5.45642C437.935 2.08323 445.965 0.393188 454.532 0.393188C461.437 0.393188 467.894 1.48999 473.888 3.6836C479.883 5.87721 485.146 9.13313 489.671 13.4445C494.196 17.7558 497.742 23.0536 500.315 29.3447C502.888 35.6358 504.171 42.8788 504.171 51.0738C504.171 60.7657 502.591 69.7195 499.432 77.942C496.273 86.1646 491.885 93.3111 486.257 99.3883C480.635 105.466 474.075 110.205 466.576 113.605C459.078 117.006 451.049 118.703 442.481 118.703C435.521 118.703 429.043 117.606 423.042 115.413V115.42ZM456.857 112.447C461.996 108.535 466.576 103.065 470.591 96.022C474.606 88.979 477.765 80.7772 480.069 71.4026C482.373 62.0349 483.525 51.9361 483.525 41.1198C483.525 28.1582 481.076 18.2042 476.178 11.244C471.281 4.28374 464.707 0.800179 456.457 0.800179C450.138 0.800179 444.357 3.02138 439.108 7.46378C433.858 11.9062 429.319 17.8662 425.491 25.3369C421.662 32.8075 418.703 41.106 416.613 50.2391C414.523 59.3723 413.481 68.6227 413.481 77.9903C413.481 90.9519 415.916 100.906 420.793 107.866C425.663 114.826 432.251 118.31 440.55 118.31C446.282 118.31 451.711 116.358 456.857 112.447Z" fill="#FF9900"/>
<path d="M551.396 117.186C549.519 115.309 548.581 113.06 548.581 110.439C548.581 107.818 549.547 105.486 551.472 103.61C553.396 101.734 555.755 100.796 558.542 100.796C561.329 100.796 563.592 101.72 565.489 103.569C567.386 105.417 568.338 107.68 568.338 110.356C568.338 113.033 567.358 115.24 565.406 117.144C563.454 119.041 561.108 119.993 558.377 119.993C555.645 119.993 553.265 119.055 551.389 117.179L551.396 117.186ZM587.342 2.64888C589.08 4.41481 589.949 7.01541 589.949 10.4369C589.949 12.8995 589.267 16.4176 587.901 20.9979C586.535 25.5783 584.783 30.7174 582.637 36.4222C580.492 42.1269 578.195 47.949 575.732 53.8951L563.923 82.7294H563.84L565.206 52.9294C565.633 46.4521 566.034 40.1334 566.413 33.9733C566.785 27.8133 567.324 21.6877 568.02 15.5829C568.448 11.9959 569.186 9.06415 570.228 6.78777C571.269 4.51138 572.621 2.81444 574.284 1.69004C575.939 0.565647 577.871 0 580.064 0C583.169 0 585.59 0.882962 587.335 2.64888H587.342Z" fill="#FF9900"/>
</g>
<defs>
<clipPath id="clip0_267_523">
<rect width="589.949" height="120" fill="white"/>
</clipPath>
</defs>
</svg>
