<svg width="1320" height="120" viewBox="0 0 1320 120" fill="none" xmlns="http://www.w3.org/2000/svg">
<path d="M1.69805 43.1027C0.568326 42.0284 0 40.6561 0 38.9858C0 36.9412 0.817835 35.2639 2.46044 33.9402C4.10304 32.6233 6.75061 31.8263 10.4101 31.5629L26.5519 30.1906V30.2738L15.4973 40.2819C13.2933 41.8967 11.5259 43.0403 10.2091 43.7126C8.89223 44.3849 7.53379 44.7245 6.13377 44.7245C4.30403 44.7245 2.82777 44.1908 1.69805 43.1096V43.1027ZM14.6864 11.1032C16.3013 11.9349 17.9161 13.6468 19.531 16.225L26.8777 28.1668V28.25L11.221 23.3291C8.58727 22.3103 6.7714 21.1667 5.77336 19.8983C4.77533 18.6369 4.28324 17.3062 4.28324 15.9062C4.28324 14.4022 4.80998 13.0161 5.85653 11.7477C6.90308 10.4863 8.37242 9.84868 10.2576 9.84868C11.6022 9.84868 13.0854 10.2645 14.6933 11.1032H14.6864ZM19.732 57.2207C18.63 56.0356 18.0755 54.587 18.0755 52.8613C18.0755 52.1613 18.1656 51.3434 18.3597 50.4008C18.5468 49.4582 19.0459 48.2661 19.8498 46.8107L28.243 31.7223H28.3262L30.5025 46.3324C30.6619 47.4622 30.7451 48.4186 30.7451 49.1949V51.3296C30.7451 53.6999 30.1559 55.5643 28.9708 56.9366C27.7856 58.3089 26.143 58.995 24.0499 58.995C22.2756 58.995 20.834 58.4059 19.732 57.2207ZM37.2462 1.73963C38.3482 2.89708 38.9026 4.33869 38.9026 6.05753C38.9026 6.75754 38.8056 7.57537 38.6185 8.51796C38.4313 9.46055 37.9323 10.6596 37.1283 12.1081L28.7351 27.1965H28.652L26.4757 12.5863C26.2608 11.4566 26.1638 10.4863 26.1915 9.68234C26.2192 8.87836 26.2331 8.17835 26.2331 7.5823C26.2331 5.21197 26.8222 3.36144 28.0074 2.01687C29.1926 0.672288 30.8352 0 32.9283 0C34.7026 0 36.1442 0.575257 37.2462 1.7327V1.73963ZM51.1286 47.1711C50.082 48.4394 48.6404 49.0701 46.8107 49.0701C45.4661 49.0701 43.9552 48.6543 42.2918 47.8226C40.6215 46.9909 39.0343 45.279 37.5303 42.7007L30.1837 30.5926V30.5094L45.7572 35.5897C48.3909 36.4491 50.2068 37.5373 51.2048 38.861C52.2028 40.1779 52.6949 41.5641 52.6949 43.0195C52.6949 44.475 52.1682 45.9097 51.1216 47.178L51.1286 47.1711ZM55.3217 15.8993C56.4792 16.9735 57.0544 18.3458 57.0544 20.0162C57.0544 22.0053 56.2158 23.6756 54.5524 25.0202C52.8821 26.3648 50.2206 27.148 46.5612 27.3628L30.3431 28.4094V28.3262L41.4809 18.7201C43.5809 16.8904 45.3136 15.6913 46.6859 15.13C48.0582 14.5616 49.4444 14.2844 50.8444 14.2844C52.6741 14.2844 54.1643 14.825 55.3217 15.8993Z" fill="white"/>
<path d="M136.544 94.9105L149.054 27.3629C150.239 20.9588 150.87 16.038 150.953 12.5934C151.036 9.14874 150.398 6.70217 149.054 5.2467C147.709 3.79123 145.505 2.82785 142.435 2.34269V2.25952H167.046V2.34269C163.983 2.82785 161.571 3.82588 159.824 5.32987C158.078 6.83385 156.594 9.31508 155.388 12.7528C154.176 16.1974 152.9 21.0628 151.556 27.3629L131.54 118.794H125.406L74.7277 11.8726L58.9116 92.9769C57.9968 97.9809 57.3799 102.084 57.0542 105.286C56.7284 108.488 56.7977 110.99 57.2552 112.792C57.7126 114.594 58.6136 115.939 59.9582 116.826C61.3028 117.713 63.1048 118.344 65.3642 118.725V118.808H40.7529V118.725C43.8718 118.24 46.3045 117.249 48.058 115.738C49.8046 114.234 51.2878 111.704 52.4937 108.148C53.7066 104.6 55.0373 99.5403 56.4859 92.9769L72.9535 18.7271C73.7089 15.4974 73.9099 12.7805 73.5564 10.5765C73.203 8.37249 72.399 6.59821 71.1376 5.2467C69.8693 3.90212 68.2197 2.93181 66.1751 2.34269V2.25952H92.6439L136.544 94.9036V94.9105Z" fill="white"/>
<path d="M242.987 29.8649H242.904C242.363 22.9756 241.303 17.6805 239.716 13.9656C238.129 10.2507 235.356 7.60311 231.406 6.01595C227.448 4.4288 221.682 3.44462 214.093 3.07036L200.376 2.34262L188.352 58.995L205.221 58.3505C210.01 58.1911 213.815 57.5396 216.643 56.4168C219.471 55.294 221.73 53.6306 223.421 51.4543C225.113 49.2781 226.637 46.4364 227.982 42.9433H228.065L220.802 77.3201H220.718C220.718 73.3903 220.365 70.1675 219.672 67.6378C218.972 65.108 217.509 63.2159 215.271 61.9476C213.039 60.6862 209.636 59.9723 205.062 59.8129L188.358 59.1683L175.772 118.725L191.748 118.08C197.881 117.754 203.177 117.006 207.647 115.821C212.11 114.636 215.999 112.903 219.311 110.616C222.617 108.329 225.535 105.369 228.065 101.737C230.595 98.1056 232.986 93.7323 235.245 88.6243H235.329L227.337 118.808H147.688V118.725C150.059 118.35 151.909 117.81 153.254 117.11C154.598 116.41 155.659 115.349 156.442 113.922C157.218 112.494 157.884 110.463 158.417 107.83L178.593 13.2517C179.182 10.5626 179.383 8.50411 179.196 7.07636C179.009 5.64862 178.378 4.60207 177.297 3.92978C176.223 3.25749 174.58 2.73075 172.376 2.35649V2.27332H247.104L242.987 29.8718V29.8649Z" fill="white"/>
<path d="M263.406 9.28733C262.491 6.917 261.403 5.23974 260.134 4.24171C258.866 3.24367 257.404 2.61297 255.733 2.34266V2.25949H295.599V2.34266C292.855 2.66841 290.72 3.45852 289.181 4.71993C287.65 5.98827 286.638 7.82493 286.153 10.2507C285.668 12.6765 285.584 15.8162 285.91 19.6905L292.446 96.4353H292.363L327.71 22.7539C330.08 17.9093 331.529 14.1181 332.069 11.3735C332.603 8.62891 332.284 6.58432 331.099 5.23974C329.914 3.89517 327.897 2.92485 325.048 2.33573V2.25256H362.253V2.33573C359.779 2.71 357.921 3.39615 356.688 4.39418C355.447 5.39222 354.685 7.08334 354.387 9.4814C354.088 11.8795 354.13 15.4142 354.504 20.0925L359.994 96.4353L395.015 23.7242C397.6 18.3459 399.208 14.1874 399.86 11.2557C400.504 8.32395 400.206 6.21005 398.972 4.92092C397.732 3.63179 395.583 2.77237 392.513 2.33573V2.25256H417.367V2.33573C415.267 2.71 413.305 3.45159 411.476 4.55359C409.646 5.65559 407.684 7.65859 405.584 10.5626C403.484 13.4666 400.906 17.8815 397.836 23.8004L348.689 118.947H342.237L332.873 12.9884H335.375L281.384 118.947H275.174L265.409 19.6835C264.979 15.1092 264.307 11.6438 263.392 9.27347L263.406 9.28733Z" fill="white"/>
<path d="M399.062 74.4161L399.146 73.6052H444.903L444.743 74.4161H399.069H399.062Z" fill="white"/>
<path d="M500.744 118.801L484.443 11.8725H484.686L465.64 94.3491C464.566 99.0274 463.838 102.86 463.464 105.847C463.089 108.834 463.11 111.205 463.547 112.951C463.976 114.698 464.85 115.994 466.167 116.826C467.483 117.657 469.299 118.295 471.614 118.725V118.808H447.079V118.725C449.928 118.136 452.256 117.11 454.058 115.661C455.86 114.206 457.434 111.829 458.778 108.523C460.123 105.217 461.578 100.517 463.138 94.4392L482.911 17.6943C483.771 14.4161 484.124 11.7338 483.958 9.66153C483.799 7.58922 483.147 5.97434 482.024 4.81689C480.894 3.65945 479.363 2.84161 477.422 2.35646V2.27329H503.815L517.856 98.2234H517.773L567.647 2.26636H595.405V2.34953C593.09 2.83468 591.275 3.46539 589.958 4.24857C588.641 5.03175 587.643 6.0783 586.971 7.39515C586.298 8.71201 585.744 10.5279 585.314 12.8428L568.93 108.231C568.555 110.65 568.431 112.536 568.569 113.88C568.701 115.225 569.311 116.25 570.385 116.943C571.459 117.644 573.13 118.233 575.389 118.718V118.801H538.67V118.718C541.089 118.233 543.001 117.657 544.401 116.985C545.802 116.313 546.876 115.287 547.631 113.922C548.387 112.549 548.976 110.657 549.406 108.231L566.192 10.7427H566.351L517.933 98.2234L507.038 118.801H500.744Z" fill="white"/>
<path d="M679.58 29.8649H679.497C678.956 22.9756 677.896 17.6805 676.309 13.9656C674.721 10.2507 671.949 7.60311 667.999 6.01595C664.041 4.4288 658.275 3.44462 650.685 3.07036L636.969 2.34262L624.944 58.995L641.807 58.3505C646.596 58.1911 650.401 57.5396 653.229 56.4168C656.057 55.294 658.309 53.6306 660.007 51.4543C661.705 49.2781 663.223 46.4364 664.568 42.9433H664.651L657.387 77.3201H657.304C657.304 73.3903 656.951 70.1675 656.258 67.6378C655.558 65.108 654.088 63.2159 651.857 61.9476C649.625 60.6862 646.222 59.9723 641.648 59.8129L624.944 59.1683L612.358 118.725L628.334 118.08C634.467 117.754 639.762 117.006 644.233 115.821C648.696 114.636 652.584 112.903 655.897 110.616C659.203 108.329 662.121 105.369 664.651 101.737C667.181 98.1056 669.572 93.7323 671.831 88.6243H671.914L663.923 118.808H584.274V118.725C586.645 118.35 588.495 117.81 589.84 117.11C591.184 116.41 592.245 115.349 593.028 113.922C593.804 112.494 594.47 110.463 595.003 107.83L615.179 13.2517C615.768 10.5626 615.969 8.50411 615.782 7.07636C615.595 5.64862 614.964 4.60207 613.883 3.92978C612.809 3.25749 611.166 2.73075 608.962 2.35649V2.27332H683.69L679.573 29.8718L679.58 29.8649Z" fill="white"/>
<path d="M775.856 29.8648H775.696C775.371 23.5162 774.435 18.4567 772.869 14.6933C771.309 10.9299 768.752 8.12982 765.203 6.30009C761.655 4.47035 756.623 3.26439 750.115 2.66834L746.483 2.3426L723.965 108.225C723.48 110.643 723.362 112.529 723.604 113.873C723.847 115.218 724.679 116.243 726.106 116.937C727.534 117.637 729.697 118.226 732.601 118.711V118.794H691.847V118.711C694.751 118.337 697.039 117.782 698.709 117.054C700.379 116.327 701.627 115.266 702.465 113.866C703.297 112.466 703.983 110.588 704.524 108.218L726.945 2.34953L723.154 2.67528C716.105 3.26439 710.346 4.60204 705.882 6.66742C701.419 8.73973 697.732 11.6715 694.828 15.4626C691.924 19.2538 689.179 24.0568 686.594 29.8648H686.511L693.372 2.26636H779.799L775.842 29.8648H775.856Z" fill="white"/>
<path d="M843.597 111.738C844.54 114.137 845.656 115.814 846.945 116.784C848.234 117.754 849.717 118.399 851.381 118.718V118.801H810.953V118.718C813.753 118.344 815.957 117.505 817.572 116.216C819.187 114.927 820.261 113.069 820.802 110.65C821.336 108.231 821.391 105.133 820.961 101.37L811.522 20.9934H811.681L771.489 97.8214C768.745 103.04 767.088 107.06 766.527 109.888C765.965 112.716 766.409 114.76 767.858 116.022C769.313 117.283 771.676 118.184 774.962 118.725V118.808H749.297V118.725C751.445 118.295 753.4 117.526 755.147 116.424C756.893 115.322 758.806 113.333 760.878 110.449C762.951 107.573 765.57 103.338 768.745 97.7382L821.932 2.10693H828.71L841.38 101.37C841.913 105.889 842.655 109.347 843.597 111.738ZM782.627 75.0606H826.929L827.012 76.1903H782.225L782.627 75.0606Z" fill="white"/>
<path d="M867.731 9.32894C866.788 6.93782 865.672 5.23977 864.383 4.24866C863.094 3.25063 861.611 2.61992 859.947 2.34962V2.26645H900.375V2.34962C897.575 2.72389 895.371 3.56251 893.756 4.85164C892.141 6.14077 891.067 7.99823 890.526 10.4171C889.985 12.8359 889.93 15.934 890.367 19.6974L899.806 100.074H899.647L939.596 23.7312C942.396 18.2974 944.101 14.1389 944.718 11.2626C945.335 8.38635 944.919 6.31404 943.47 5.04571C942.015 3.7843 939.652 2.88329 936.366 2.34269V2.25952H962.031V2.34269C959.876 2.71695 957.928 3.48627 956.182 4.64372C954.435 5.80116 952.494 7.83189 950.373 10.7359C948.246 13.6399 945.598 17.9994 942.424 23.8074L889.403 118.954H882.625L869.955 19.6905C869.415 15.1716 868.68 11.7131 867.737 9.32201L867.731 9.32894Z" fill="white"/>
<path d="M1038.45 29.8649H1038.37C1037.83 22.9756 1036.77 17.6805 1035.18 13.9656C1033.59 10.2507 1030.82 7.60311 1026.87 6.01595C1022.91 4.4288 1017.14 3.44462 1009.56 3.07036L995.839 2.34262L983.814 58.995L1000.68 58.3505C1005.47 58.1911 1009.28 57.5396 1012.11 56.4168C1014.93 55.294 1017.19 53.6306 1018.88 51.4543C1020.58 49.2781 1022.1 46.4364 1023.44 42.9433H1023.53L1016.26 77.3201H1016.18C1016.18 73.3903 1015.83 70.1675 1015.13 67.6378C1014.43 65.108 1012.97 63.2159 1010.73 61.9476C1008.5 60.6862 1005.1 59.9723 1000.52 59.8129L983.821 59.1683L971.235 118.725L987.21 118.08C993.344 117.754 998.639 117.006 1003.11 115.821C1007.57 114.636 1011.46 112.903 1014.77 110.616C1018.08 108.329 1021 105.369 1023.53 101.737C1026.06 98.1056 1028.45 93.7323 1030.71 88.6243H1030.79L1022.8 118.808H943.151V118.725C945.522 118.35 947.372 117.81 948.717 117.11C950.061 116.41 951.122 115.349 951.905 113.922C952.681 112.494 953.347 110.463 953.88 107.83L974.056 13.2517C974.645 10.5626 974.846 8.50411 974.659 7.07636C974.472 5.64862 973.841 4.60207 972.76 3.92978C971.685 3.25749 970.043 2.73075 967.839 2.35649V2.27332H1042.57L1038.45 29.8718V29.8649Z" fill="white"/>
<path d="M1129.08 45.5216C1126.33 49.6108 1122.51 52.9307 1117.62 55.4881C1112.73 58.0456 1107.06 59.9031 1100.63 61.0536C1094.2 62.211 1087.33 62.7863 1080.01 62.7863H1071.22L1061.78 107.816C1061.24 110.505 1061.04 112.563 1061.18 113.991C1061.31 115.419 1061.92 116.465 1062.99 117.138C1064.07 117.81 1065.74 118.337 1068 118.711V118.794H1031.44V118.711C1033.81 118.337 1035.66 117.796 1037 117.096C1038.35 116.396 1039.41 115.336 1040.19 113.908C1040.97 112.48 1041.65 110.449 1042.25 107.816L1062.34 13.2379C1062.87 10.5488 1063.07 8.49032 1062.9 7.06257C1062.74 5.63483 1062.12 4.58827 1061.04 3.91598C1059.97 3.2437 1058.33 2.71695 1056.12 2.34269V2.25952H1092.03C1105.7 2.25952 1115.97 4.78927 1122.86 9.84183C1129.75 14.9013 1133.19 21.7836 1133.19 30.5026C1133.19 36.4215 1131.81 41.4255 1129.07 45.5147L1129.08 45.5216ZM1107.73 10.7012C1103.72 5.56552 1098.14 2.8625 1090.99 2.5922L1084.21 2.34962L1071.21 62.71L1077.59 62.4674C1085.5 62.1417 1092.14 60.5823 1097.52 57.7892C1102.9 54.9891 1106.95 51.2257 1109.66 46.4919C1112.38 41.7582 1113.74 36.2967 1113.74 30.1075C1113.74 22.3103 1111.74 15.837 1107.73 10.7012ZM1085.18 62.308C1086.63 62.2041 1088.05 62.0377 1089.45 61.8229C1090.85 61.608 1092.24 61.3516 1093.61 61.0536C1094.98 60.7555 1096.4 60.3951 1097.85 59.9654C1099.3 59.5357 1100.81 59.0228 1102.37 58.4337L1115.28 96.6849C1117.11 102.063 1118.69 106.235 1120.04 109.195C1121.38 112.154 1122.67 114.31 1123.91 115.654C1125.15 116.999 1126.5 118.025 1127.95 118.718V118.801H1103.98L1085.18 62.308Z" fill="white"/>
<path d="M1159.22 119.078C1154.89 118.461 1150.91 117.588 1147.28 116.458C1143.65 115.329 1140.67 114.067 1138.36 112.667L1142.88 84.0984H1142.96C1142.85 92.7619 1144.02 99.6996 1146.47 104.919C1148.92 110.137 1152.25 113.901 1156.44 116.216C1160.63 118.531 1165.26 119.688 1170.32 119.688C1174.9 119.688 1179.05 118.815 1182.79 117.068C1186.53 115.322 1189.53 112.736 1191.79 109.32C1194.05 105.903 1195.18 101.772 1195.18 96.9343C1195.18 92.0965 1194.18 87.6955 1192.19 83.738C1190.2 79.7805 1186.84 75.927 1182.1 72.1566L1170.81 63.202C1165.26 58.8425 1161.03 54.2959 1158.1 49.5622C1155.16 44.8284 1153.7 39.6373 1153.7 33.9887C1153.7 27.0994 1155.4 21.2082 1158.82 16.3151C1162.23 11.4219 1166.88 7.66544 1172.78 5.05946C1178.67 2.45348 1185.33 1.14355 1192.75 1.14355C1200.71 1.14355 1207.14 2.04456 1212.04 3.84657C1216.93 5.64858 1220.86 7.89416 1223.82 10.5833L1219.46 38.6669H1219.38C1219.11 26.3509 1216.81 17.0636 1212.48 10.8259C1208.14 4.58817 1202.24 1.46237 1194.76 1.46237C1187.28 1.46237 1181.61 3.46538 1177.57 7.47138C1173.54 11.4774 1171.52 16.821 1171.52 23.4885C1171.52 27.6816 1172.49 31.5559 1174.43 35.1114C1176.36 38.66 1179.56 42.2155 1184.03 45.7641L1195.41 54.7187C1201.6 59.5633 1206.09 64.5119 1208.89 69.5645C1211.69 74.624 1213.09 80.0577 1213.09 85.8657C1213.09 91.6738 1211.94 96.3729 1209.65 100.594C1207.37 104.815 1204.29 108.384 1200.42 111.288C1196.54 114.192 1192.17 116.375 1187.3 117.824C1182.43 119.279 1177.42 120 1172.25 120C1167.89 120 1163.54 119.688 1159.22 119.071V119.078Z" fill="white"/>
<path d="M1315.58 29.8649H1315.49C1314.95 22.9756 1313.89 17.6805 1312.31 13.9656C1310.72 10.2507 1307.95 7.60311 1304 6.01595C1300.04 4.4288 1294.27 3.44462 1286.68 3.07036L1272.97 2.34262L1260.94 58.995L1277.81 58.3505C1282.6 58.1911 1286.41 57.5396 1289.23 56.4168C1292.06 55.294 1294.32 53.6306 1296.01 51.4543C1297.7 49.2781 1299.23 46.4364 1300.57 42.9433H1300.66L1293.39 77.3201H1293.31C1293.31 73.3903 1292.96 70.1675 1292.26 67.6378C1291.56 65.108 1290.1 63.2159 1287.86 61.9476C1285.63 60.6862 1282.23 59.9723 1277.65 59.8129L1260.95 59.1683L1248.36 118.725L1264.34 118.08C1270.47 117.754 1275.77 117.006 1280.24 115.821C1284.7 114.636 1288.59 112.903 1291.9 110.616C1295.21 108.329 1298.13 105.369 1300.66 101.737C1303.19 98.1056 1305.58 93.7323 1307.84 88.6243H1307.92L1299.93 118.808H1220.28V118.725C1222.65 118.35 1224.5 117.81 1225.84 117.11C1227.19 116.41 1228.25 115.349 1229.03 113.922C1229.81 112.494 1230.47 110.463 1231.01 107.83L1251.18 13.2517C1251.77 10.5626 1251.97 8.50411 1251.79 7.07636C1251.6 5.64862 1250.97 4.60207 1249.89 3.92978C1248.81 3.25749 1247.17 2.73075 1244.97 2.35649V2.27332H1319.69L1315.58 29.8718V29.8649Z" fill="white"/>
</svg>
