<svg width="915" height="81" viewBox="0 0 915 81" fill="none" xmlns="http://www.w3.org/2000/svg">
<path d="M22.283 73.0311L37.4879 3.61748H46.5584L51.4869 9.54175L35.2858 79.9515H25.2716L22.283 73.0311ZM18.2458 3.61748L31.0913 73.5553L27.7882 79.9515H16.2011L0 3.61748H18.2458ZM59.8233 73.1884L72.564 3.61748H90.7574L74.5563 79.9515H63.0216L59.8233 73.1884ZM53.1122 3.61748L68.6841 73.4505L65.5383 79.9515H55.524L38.9559 9.43689L44.0941 3.61748H53.1122Z" fill="white"/>
<path d="M125.888 19.6602L107.275 79.9515H87.5088L115.559 3.61748H128.09L125.888 19.6602ZM141.303 79.9515L122.637 19.6602L120.225 3.61748H132.914L161.121 79.9515H141.303ZM140.569 51.4835V65.6913H101.403V51.4835H140.569Z" fill="white"/>
<path d="M182.987 3.61748V79.9515H164.584V3.61748H182.987ZM228.549 3.61748L198.978 42.3087L181.676 61.235L178.321 44.3534L189.384 27.5767L205.847 3.61748H228.549ZM206.79 79.9515L187.077 45.5592L201.39 35.0214L228.549 79.9515H206.79Z" fill="white"/>
<path d="M308.248 65.7961V79.9515H267.562V65.7961H308.248ZM274.116 3.61748V79.9515H255.712V3.61748H274.116ZM303.005 33.9204V47.6039H267.562V33.9204H303.005ZM308.405 3.61748V17.8252H267.562V3.61748H308.405Z" fill="white"/>
<path d="M330.166 35.3359V79.9515H312.497V23.2252H329.065L330.166 35.3359ZM328.069 49.6485L323.927 49.7534C323.927 45.4194 324.451 41.5573 325.5 38.167C326.548 34.7417 328.034 31.8408 329.956 29.4641C331.879 27.0874 334.168 25.2874 336.825 24.0641C339.516 22.8058 342.505 22.1767 345.79 22.1767C348.412 22.1767 350.806 22.5612 352.973 23.3301C355.175 24.099 357.063 25.3398 358.636 27.0524C360.244 28.765 361.467 31.0369 362.306 33.868C363.18 36.6641 363.617 40.1243 363.617 44.2485V79.9515H345.843V44.1961C345.843 41.9243 345.528 40.1942 344.899 39.0058C344.27 37.7825 343.361 36.9437 342.173 36.4893C340.984 36.035 339.534 35.8078 337.821 35.8078C336.003 35.8078 334.465 36.1573 333.207 36.8563C331.949 37.5553 330.935 38.534 330.166 39.7922C329.432 41.0155 328.89 42.466 328.541 44.1437C328.226 45.8214 328.069 47.6563 328.069 49.6485Z" fill="white"/>
<path d="M401.159 23.2252V35.4932H366.974V23.2252H401.159ZM374.157 9.12233H391.826V61.4447C391.826 62.9476 392.001 64.1184 392.351 64.9573C392.7 65.7612 393.295 66.3379 394.133 66.6874C395.007 67.0019 396.161 67.1592 397.594 67.1592C398.608 67.1592 399.446 67.1417 400.111 67.1068C400.775 67.0369 401.404 66.9495 401.998 66.8447V79.4796C400.495 79.9689 398.922 80.3359 397.279 80.5806C395.636 80.8602 393.889 81 392.036 81C388.261 81 385.028 80.4058 382.337 79.2175C379.68 78.0291 377.653 76.1592 376.255 73.6078C374.856 71.0563 374.157 67.7359 374.157 63.6466V9.12233Z" fill="white"/>
<path d="M433.511 81C428.897 81 424.772 80.2835 421.137 78.8505C417.502 77.3825 414.426 75.3728 411.909 72.8214C409.428 70.2699 407.523 67.334 406.195 64.0136C404.901 60.6932 404.255 57.1806 404.255 53.4757V51.4835C404.255 47.3243 404.831 43.4796 405.985 39.9495C407.138 36.3845 408.851 33.2738 411.123 30.6175C413.395 27.9612 416.244 25.899 419.669 24.4311C423.095 22.9282 427.079 22.1767 431.623 22.1767C435.643 22.1767 439.243 22.8233 442.424 24.1165C445.605 25.4097 448.296 27.2621 450.498 29.6738C452.735 32.0854 454.431 35.0039 455.584 38.4291C456.773 41.8544 457.367 45.699 457.367 49.9631V57.1456H411.018V46.0835H440.117V44.7204C440.152 42.833 439.82 41.2252 439.121 39.8971C438.457 38.5689 437.478 37.5553 436.185 36.8563C434.892 36.1573 433.319 35.8078 431.466 35.8078C429.544 35.8078 427.953 36.2272 426.695 37.066C425.472 37.9049 424.51 39.0583 423.811 40.5262C423.147 41.9592 422.675 43.6194 422.396 45.5068C422.116 47.3942 421.976 49.3864 421.976 51.4835V53.4757C421.976 55.5728 422.256 57.4777 422.815 59.1903C423.409 60.9029 424.248 62.3709 425.332 63.5942C426.45 64.7825 427.779 65.7087 429.316 66.3728C430.889 67.0369 432.672 67.3689 434.664 67.3689C437.076 67.3689 439.453 66.9146 441.795 66.0058C444.137 65.0971 446.147 63.5942 447.824 61.4971L455.846 71.0388C454.693 72.6816 453.05 74.2719 450.918 75.8097C448.821 77.3476 446.304 78.6058 443.368 79.5845C440.432 80.5282 437.146 81 433.511 81Z" fill="white"/>
<path d="M480.229 37.2757V79.9515H462.56V23.2252H479.075L480.229 37.2757ZM497.006 22.8058L496.692 39.2155C495.993 39.1456 495.049 39.0583 493.861 38.9534C492.672 38.8485 491.676 38.7961 490.872 38.7961C488.81 38.7961 487.027 39.0408 485.524 39.5301C484.056 39.9845 482.833 40.6835 481.854 41.6272C480.91 42.5359 480.211 43.6893 479.757 45.0874C479.337 46.4854 479.145 48.1107 479.18 49.9631L475.982 47.866C475.982 44.0563 476.349 40.5961 477.083 37.4854C477.852 34.3398 478.935 31.6311 480.334 29.3592C481.732 27.0524 483.427 25.2874 485.419 24.0641C487.412 22.8058 489.649 22.1767 492.13 22.1767C493.004 22.1767 493.861 22.2291 494.7 22.334C495.573 22.4388 496.342 22.5961 497.006 22.8058Z" fill="white"/>
<path d="M533.448 23.2252V35.4932H499.263V23.2252H533.448ZM506.446 9.12233H524.115V61.4447C524.115 62.9476 524.29 64.1184 524.639 64.9573C524.989 65.7612 525.583 66.3379 526.422 66.6874C527.296 67.0019 528.449 67.1592 529.883 67.1592C530.896 67.1592 531.735 67.1417 532.399 67.1068C533.063 67.0369 533.693 66.9495 534.287 66.8447V79.4796C532.784 79.9689 531.211 80.3359 529.568 80.5806C527.925 80.8602 526.177 81 524.325 81C520.55 81 517.317 80.4058 514.625 79.2175C511.969 78.0291 509.941 76.1592 508.543 73.6078C507.145 71.0563 506.446 67.7359 506.446 63.6466V9.12233Z" fill="white"/>
<path d="M567.792 65.6913V42.3087C567.792 40.701 567.565 39.3204 567.11 38.167C566.656 37.0136 565.939 36.1223 564.961 35.4932C563.982 34.8291 562.671 34.4971 561.028 34.4971C559.7 34.4971 558.564 34.7243 557.62 35.1786C556.677 35.633 555.96 36.3146 555.471 37.2233C554.981 38.132 554.737 39.2854 554.737 40.6835H537.068C537.068 38.0621 537.644 35.633 538.798 33.3961C539.986 31.1243 541.664 29.1495 543.831 27.4718C546.033 25.7942 548.655 24.501 551.696 23.5922C554.772 22.6485 558.197 22.1767 561.972 22.1767C566.481 22.1767 570.501 22.9282 574.031 24.4311C577.596 25.934 580.41 28.1884 582.473 31.1942C584.535 34.1651 585.566 37.9049 585.566 42.4136V65.6388C585.566 69.3437 585.776 72.1573 586.195 74.0796C586.615 75.967 587.209 77.6272 587.978 79.0602V79.9515H570.256C569.417 78.2039 568.788 76.0718 568.369 73.5553C567.984 71.0039 567.792 68.3825 567.792 65.6913ZM569.942 45.2971L570.047 54.734H562.234C560.591 54.734 559.193 54.9612 558.04 55.4155C556.921 55.8699 556.013 56.499 555.313 57.3029C554.649 58.0718 554.16 58.9456 553.845 59.9243C553.566 60.9029 553.426 61.934 553.426 63.0175C553.426 64.066 553.671 65.0097 554.16 65.8485C554.684 66.6524 555.383 67.2816 556.257 67.7359C557.131 68.1903 558.11 68.4175 559.193 68.4175C561.151 68.4175 562.811 68.0505 564.174 67.3165C565.572 66.5476 566.638 65.6214 567.372 64.5379C568.107 63.4544 568.474 62.4408 568.474 61.4971L572.353 68.732C571.654 70.1301 570.85 71.5456 569.942 72.9786C569.068 74.4117 567.967 75.7398 566.638 76.9631C565.345 78.1515 563.755 79.1301 561.867 79.899C559.98 80.633 557.69 81 554.999 81C551.504 81 548.288 80.2835 545.352 78.8505C542.451 77.4175 540.126 75.4252 538.378 72.8738C536.631 70.2874 535.757 67.3165 535.757 63.9612C535.757 61.0252 536.281 58.4039 537.33 56.0971C538.413 53.7903 540.039 51.833 542.206 50.2252C544.373 48.6175 547.134 47.3942 550.49 46.5553C553.845 45.7165 557.795 45.2971 562.339 45.2971H569.942Z" fill="white"/>
<path d="M611.888 23.2252V79.9515H594.167V23.2252H611.888ZM593.118 8.59806C593.118 6.08155 594.027 4.01942 595.844 2.41165C597.662 0.803883 600.021 0 602.923 0C605.824 0 608.183 0.803883 610.001 2.41165C611.818 4.01942 612.727 6.08155 612.727 8.59806C612.727 11.1146 611.818 13.1767 610.001 14.7845C608.183 16.3922 605.824 17.1961 602.923 17.1961C600.021 17.1961 597.662 16.3922 595.844 14.7845C594.027 13.1767 593.118 11.1146 593.118 8.59806Z" fill="white"/>
<path d="M638.001 35.3359V79.9515H620.332V23.2252H636.9L638.001 35.3359ZM635.904 49.6485L631.761 49.7534C631.761 45.4194 632.286 41.5573 633.334 38.167C634.383 34.7417 635.869 31.8408 637.791 29.4641C639.714 27.0874 642.003 25.2874 644.659 24.0641C647.351 22.8058 650.339 22.1767 653.625 22.1767C656.247 22.1767 658.641 22.5612 660.808 23.3301C663.01 24.099 664.898 25.3398 666.471 27.0524C668.078 28.765 669.302 31.0369 670.141 33.868C671.015 36.6641 671.451 40.1243 671.451 44.2485V79.9515H653.677V44.1961C653.677 41.9243 653.363 40.1942 652.734 39.0058C652.105 37.7825 651.196 36.9437 650.007 36.4893C648.819 36.035 647.368 35.8078 645.656 35.8078C643.838 35.8078 642.3 36.1573 641.042 36.8563C639.783 37.5553 638.77 38.534 638.001 39.7922C637.267 41.0155 636.725 42.466 636.375 44.1437C636.061 45.8214 635.904 47.6563 635.904 49.6485Z" fill="white"/>
<path d="M696.935 35.2311V79.9515H679.266V23.2252H695.834L696.935 35.2311ZM694.785 49.6485L690.748 49.7534C690.748 45.7689 691.22 42.099 692.164 38.7437C693.107 35.3884 694.506 32.4699 696.358 29.9883C698.211 27.5068 700.483 25.5845 703.174 24.2214C705.9 22.8583 709.046 22.1767 712.612 22.1767C715.093 22.1767 717.348 22.5612 719.375 23.3301C721.402 24.0641 723.15 25.235 724.618 26.8427C726.086 28.4155 727.205 30.4777 727.974 33.0291C728.778 35.5456 729.18 38.5689 729.18 42.099V79.9515H711.511V44.3534C711.511 41.9417 711.231 40.1243 710.672 38.901C710.147 37.6777 709.378 36.8563 708.365 36.4369C707.351 36.0175 706.11 35.8078 704.642 35.8078C703.104 35.8078 701.724 36.1573 700.5 36.8563C699.277 37.5553 698.228 38.534 697.354 39.7922C696.515 41.0155 695.869 42.466 695.414 44.1437C694.995 45.8214 694.785 47.6563 694.785 49.6485ZM727.187 49.6485L722.259 49.7534C722.259 45.7689 722.696 42.099 723.57 38.7437C724.478 35.3884 725.824 32.4699 727.607 29.9883C729.424 27.5068 731.679 25.5845 734.37 24.2214C737.062 22.8583 740.19 22.1767 743.755 22.1767C746.342 22.1767 748.719 22.5612 750.886 23.3301C753.053 24.099 754.923 25.3398 756.496 27.0524C758.069 28.765 759.292 31.0369 760.166 33.868C761.04 36.6641 761.477 40.1243 761.477 44.2485V79.9515H743.755V44.2485C743.755 41.9068 743.476 40.1418 742.917 38.9534C742.392 37.7301 741.623 36.9087 740.61 36.4893C739.596 36.035 738.39 35.8078 736.992 35.8078C735.314 35.8078 733.863 36.1573 732.64 36.8563C731.417 37.5553 730.386 38.534 729.547 39.7922C728.743 41.0155 728.148 42.466 727.764 44.1437C727.38 45.8214 727.187 47.6563 727.187 49.6485Z" fill="white"/>
<path d="M796.922 81C792.308 81 788.184 80.2835 784.548 78.8505C780.913 77.3825 777.837 75.3728 775.321 72.8214C772.839 70.2699 770.934 67.334 769.606 64.0136C768.312 60.6932 767.666 57.1806 767.666 53.4757V51.4835C767.666 47.3243 768.243 43.4796 769.396 39.9495C770.549 36.3845 772.262 33.2738 774.534 30.6175C776.806 27.9612 779.655 25.899 783.08 24.4311C786.506 22.9282 790.491 22.1767 795.035 22.1767C799.054 22.1767 802.654 22.8233 805.835 24.1165C809.016 25.4097 811.708 27.2621 813.91 29.6738C816.147 32.0854 817.842 35.0039 818.995 38.4291C820.184 41.8544 820.778 45.699 820.778 49.9631V57.1456H774.429V46.0835H803.528V44.7204C803.563 42.833 803.231 41.2252 802.532 39.8971C801.868 38.5689 800.889 37.5553 799.596 36.8563C798.303 36.1573 796.73 35.8078 794.877 35.8078C792.955 35.8078 791.364 36.2272 790.106 37.066C788.883 37.9049 787.922 39.0583 787.222 40.5262C786.558 41.9592 786.086 43.6194 785.807 45.5068C785.527 47.3942 785.387 49.3864 785.387 51.4835V53.4757C785.387 55.5728 785.667 57.4777 786.226 59.1903C786.82 60.9029 787.659 62.3709 788.743 63.5942C789.861 64.7825 791.19 65.7087 792.728 66.3728C794.301 67.0369 796.083 67.3689 798.076 67.3689C800.487 67.3689 802.864 66.9146 805.206 66.0058C807.548 65.0971 809.558 63.5942 811.236 61.4971L819.258 71.0388C818.104 72.6816 816.461 74.2719 814.329 75.8097C812.232 77.3476 809.715 78.6058 806.779 79.5845C803.843 80.5282 800.557 81 796.922 81Z" fill="white"/>
<path d="M843.168 35.3359V79.9515H825.499V23.2252H842.067L843.168 35.3359ZM841.071 49.6485L836.929 49.7534C836.929 45.4194 837.453 41.5573 838.502 38.167C839.55 34.7417 841.036 31.8408 842.958 29.4641C844.881 27.0874 847.17 25.2874 849.827 24.0641C852.518 22.8058 855.507 22.1767 858.792 22.1767C861.414 22.1767 863.808 22.5612 865.975 23.3301C868.177 24.099 870.065 25.3398 871.638 27.0524C873.246 28.765 874.469 31.0369 875.308 33.868C876.182 36.6641 876.619 40.1243 876.619 44.2485V79.9515H858.845V44.1961C858.845 41.9243 858.53 40.1942 857.901 39.0058C857.272 37.7825 856.363 36.9437 855.175 36.4893C853.986 36.035 852.536 35.8078 850.823 35.8078C849.005 35.8078 847.467 36.1573 846.209 36.8563C844.951 37.5553 843.937 38.534 843.168 39.7922C842.434 41.0155 841.892 42.466 841.543 44.1437C841.228 45.8214 841.071 47.6563 841.071 49.6485Z" fill="white"/>
<path d="M914.161 23.2252V35.4932H879.976V23.2252H914.161ZM887.159 9.12233H904.828V61.4447C904.828 62.9476 905.003 64.1184 905.353 64.9573C905.702 65.7612 906.297 66.3379 907.135 66.6874C908.009 67.0019 909.163 67.1592 910.596 67.1592C911.609 67.1592 912.448 67.1417 913.112 67.1068C913.777 67.0369 914.406 66.9495 915 66.8447V79.4796C913.497 79.9689 911.924 80.3359 910.281 80.5806C908.638 80.8602 906.891 81 905.038 81C901.263 81 898.03 80.4058 895.339 79.2175C892.682 78.0291 890.655 76.1592 889.257 73.6078C887.858 71.0563 887.159 67.7359 887.159 63.6466V9.12233Z" fill="white"/>
</svg>
