<svg width="90" height="44" viewBox="0 0 90 44" fill="none" xmlns="http://www.w3.org/2000/svg">
<path d="M33.492 37.6614H35.5634V36.7317H33.492V35.513H35.7574V34.5625H32.3997V39.9885H35.8379V39.038H33.492V37.6614Z" fill="white"/>
<path d="M39.655 37.6971L37.0853 34.5625H36.3391V39.9885H37.4166V36.5946L40.1654 39.9885H40.7325V34.5625H39.655V37.6971Z" fill="white"/>
<path d="M41.1711 35.513H42.6545V39.9885H43.7528V35.513H45.2272V34.5625H41.1711V35.513Z" fill="white"/>
<path d="M46.7586 37.6614H48.8299V36.7317H46.7586V35.513H49.0239V34.5625H45.6692V39.9885H49.1045V39.038H46.7586V37.6614Z" fill="white"/>
<path d="M53.3812 37.2146C53.5573 36.9434 53.6468 36.6365 53.6468 36.3028C53.6468 36.0763 53.6021 35.8529 53.5125 35.6443C53.426 35.4327 53.3006 35.248 53.1454 35.0871C52.9902 34.9262 52.7992 34.7981 52.5843 34.7027C52.3664 34.6074 52.1247 34.5597 51.865 34.5597H49.6086V39.9857H50.701V38.037H51.7307L52.8261 39.9857H53.9662L52.7395 37.8135C53.0051 37.6645 53.223 37.4619 53.3842 37.2146H53.3812ZM50.698 35.4983H51.8202C52.068 35.4983 52.25 35.5698 52.3754 35.7128C52.5037 35.8588 52.5664 36.0585 52.5664 36.3028C52.5664 36.5471 52.5007 36.7468 52.3754 36.8898C52.25 37.0328 52.068 37.1014 51.8202 37.1014H50.698V35.4953V35.4983Z" fill="white"/>
<path d="M58.0761 34.5625H54.02V35.513H55.5034V39.9885H56.6017V35.513H58.0761V34.5625Z" fill="white"/>
<path d="M60.5323 34.5625H59.7146L57.6343 39.9885H58.7416L58.7595 39.9408C58.7953 39.8484 58.8281 39.7531 58.858 39.6577C58.8878 39.5624 58.9177 39.467 58.9535 39.3747C58.9893 39.2823 59.0221 39.187 59.052 39.0886C59.0759 39.0112 59.0997 38.9337 59.1296 38.8622H61.0636L61.4725 39.9885H62.5828L60.5532 34.6102L60.5353 34.5625H60.5323ZM60.7264 37.9117H59.4847L60.1055 36.252L60.7264 37.9117V37.9117Z" fill="white"/>
<path d="M64.0955 34.5625H63.0181V39.9885H64.0955V34.5625Z" fill="white"/>
<path d="M68.2119 37.6971L65.6422 34.5625H64.896V39.9885H65.9764V36.5946L68.7253 39.9885H69.2894V34.5625H68.2119V37.6971Z" fill="white"/>
<path d="M72.802 37.5034L71.0232 34.5983L70.9993 34.5625H70.0562V39.9885H71.1336V36.6513L72.799 39.2168L74.4674 36.6513V39.9885H75.5449V34.5625H74.6137L72.802 37.5034Z" fill="white"/>
<path d="M77.4078 37.6614H79.4791V36.7317H77.4078V35.513H79.6731V34.5625H76.3154V39.9885H79.7537V39.038H77.4078V37.6614Z" fill="white"/>
<path d="M83.5678 37.6971L81.001 34.5625H80.2549V39.9885H81.3323V36.5946L84.0812 39.9885H84.6482V34.5625H83.5678V37.6971Z" fill="white"/>
<path d="M85.0872 34.5625V35.513H86.5705V39.9885H87.6689V35.513H89.1433V34.5625H85.0872Z" fill="white"/>
<path d="M20.95 29.2144C20.8784 29.3217 20.8187 29.4409 20.7291 29.5303C18.7802 31.4998 16.8252 33.4634 14.8793 35.433C14.2107 36.1094 13.4377 36.4789 12.4766 36.2673C11.2142 35.9902 10.5307 34.852 10.7068 33.383C11.1216 29.8848 11.5305 26.3867 11.9424 22.8856C12.02 22.236 12.0976 21.5894 12.1842 20.8773C11.9991 20.9637 11.8708 21.0173 11.7484 21.0799C9.06224 22.385 6.37309 23.6841 3.68991 24.9952C3.06911 25.2991 2.43339 25.4719 1.74692 25.3051C0.391905 24.9743 -0.348282 23.5888 0.162089 22.2122C0.90526 20.2128 1.70812 18.2373 2.49308 16.2528C4.32564 11.6164 6.16118 6.98007 7.99076 2.34072C8.19968 1.80736 8.44144 1.30379 8.90704 0.93729C9.7099 0.302619 10.8142 0.254944 11.6439 0.833002C12.5035 1.42894 12.8736 2.48672 12.4856 3.53557C11.8827 5.17439 11.2231 6.79533 10.5814 8.41926C9.32787 11.5986 8.06836 14.7779 6.81183 17.9572C6.76408 18.0764 6.72229 18.1926 6.65365 18.3744C6.82676 18.3028 6.94913 18.2581 7.06553 18.1986C9.25326 17.1348 11.444 16.074 13.6317 15.0073C14.357 14.6527 15.1001 14.5187 15.8702 14.8434C16.8969 15.2785 17.4043 16.3065 17.255 17.552C16.8909 20.5912 16.5387 23.6305 16.1836 26.6698C16.1507 26.9469 16.1209 27.227 16.0761 27.5935C16.2253 27.4624 16.3119 27.3968 16.3895 27.3193C17.4878 26.2139 18.5802 25.0995 19.6875 24.003C19.8785 23.8152 19.9113 23.6454 19.8576 23.3891C19.1562 20.0311 18.4549 16.6759 17.7863 13.3119C17.5893 12.3286 17.8669 11.4585 18.7205 10.8626C19.589 10.2577 20.5113 10.2905 21.3708 10.8507C23.3556 12.1439 25.3165 13.4787 27.2864 14.7987C27.5848 14.9984 27.8833 15.195 28.2683 15.4513C28.3519 15.3261 28.4175 15.195 28.516 15.0967C30.0024 13.595 31.4947 12.0992 32.978 10.5944C33.5571 10.0104 34.2167 9.61411 35.0673 9.69158C35.9925 9.77501 36.667 10.2547 37.0103 11.1248C37.3654 12.0247 37.1893 12.8709 36.5417 13.5652C35.503 14.6736 34.4166 15.7403 33.3451 16.819C32.9452 17.2212 32.5274 17.6026 32.0856 18.0257C33.2884 18.8332 34.4286 19.602 35.6045 20.3916C35.6702 20.2486 35.7269 20.1234 35.7806 19.9983C37.5057 15.8863 39.2368 11.7744 40.9559 7.65944C41.2693 6.91154 41.6693 6.25005 42.4662 5.94613C43.3347 5.61538 44.1525 5.74053 44.8419 6.37222C45.5702 7.03669 45.794 7.88887 45.4687 8.80065C45.0598 9.94783 44.5614 11.0652 44.0898 12.1915C43.1079 14.5395 42.1229 16.8845 41.138 19.2325C41.0932 19.3368 41.0574 19.447 41.0007 19.596C41.2425 19.596 41.4514 19.605 41.6603 19.596C44.2629 19.4768 46.8655 19.3547 49.4651 19.2295C50.844 19.164 52.2229 19.1014 53.5988 19.0299C54.6703 18.9733 55.5776 19.2712 56.1148 20.2635C56.9177 21.7444 55.894 23.5352 54.1748 23.6335C51.9752 23.7616 49.7695 23.848 47.5669 23.9493C45.7134 24.0357 43.857 24.1162 42.0035 24.2026C41.8304 24.2115 41.6543 24.2354 41.3738 24.2592C41.7319 24.5035 42.0065 24.6883 42.2781 24.873C43.1198 25.4451 43.9853 25.9844 44.8001 26.5953C46.0955 27.5667 46.0835 29.4141 44.7852 30.3258C43.9376 30.9218 43.0243 30.9069 42.1677 30.3616C40.7351 29.4468 39.3323 28.4814 37.9206 27.5339C34.9897 25.5673 32.0618 23.5947 29.1309 21.6282C29.0264 21.5566 28.916 21.4941 28.8234 21.4375C28.2623 21.9827 27.7132 22.5042 27.1759 23.0375C26.5074 23.699 25.8418 24.3635 25.1971 25.0488C25.0867 25.165 25.0151 25.3974 25.0479 25.5524C25.9492 29.9564 26.8625 34.3603 27.7758 38.7613C28.0653 40.1588 27.4177 41.3655 26.194 41.7112C24.9255 42.0687 23.6332 41.3328 23.3168 39.9979C22.9437 38.4246 22.6363 36.8334 22.308 35.2483C21.9081 33.3234 21.5171 31.3985 21.1201 29.4766C21.1082 29.4141 21.0813 29.3545 21.0604 29.2949L20.953 29.2144H20.95ZM24.8569 18.7647C24.3913 18.4518 23.9525 18.1539 23.4392 17.8082C23.5854 18.5055 23.7108 19.1163 23.8361 19.7063C24.1764 19.3934 24.5017 19.0925 24.8599 18.7647H24.8569Z" fill="white"/>
</svg>
